<?xml version="1.0" encoding="UTF-8" standalone="no"?>
<!-- Created with Inkscape (http://www.inkscape.org/) -->

<svg
   xmlns:dc="http://purl.org/dc/elements/1.1/"
   xmlns:cc="http://creativecommons.org/ns#"
   xmlns:rdf="http://www.w3.org/1999/02/22-rdf-syntax-ns#"
   xmlns:svg="http://www.w3.org/2000/svg"
   xmlns="http://www.w3.org/2000/svg"
   xmlns:sodipodi="http://sodipodi.sourceforge.net/DTD/sodipodi-0.dtd"
   xmlns:inkscape="http://www.inkscape.org/namespaces/inkscape"
   width="512"
   height="512"
   viewBox="0 0 135.46666 135.46667"
   version="1.1"
   id="svg829"
   sodipodi:docname="mode_mouse_with_wheel.svg"
   inkscape:version="0.92.4 (5da689c313, 2019-01-14)"
   inkscape:export-filename="C:\Users\armaku\source\repos\MiniBrain\data\icons\touch_screen.png"
   inkscape:export-xdpi="90"
   inkscape:export-ydpi="90">
  <defs
     id="defs823" />
  <sodipodi:namedview
     id="base"
     pagecolor="#ffffff"
     bordercolor="#666666"
     borderopacity="1.0"
     inkscape:pageopacity="0.0"
     inkscape:pageshadow="2"
     inkscape:zoom="1.4"
     inkscape:cx="183.85468"
     inkscape:cy="238.78131"
     inkscape:document-units="px"
     inkscape:current-layer="layer1"
     showgrid="false"
     inkscape:window-width="1920"
     inkscape:window-height="1027"
     inkscape:window-x="1912"
     inkscape:window-y="-8"
     inkscape:window-maximized="1"
     showguides="true"
     inkscape:guide-bbox="true"
     inkscape:snap-global="true"
     units="px" />
  <metadata
     id="metadata826">
    <rdf:RDF>
      <cc:Work
         rdf:about="">
        <dc:format>image/svg+xml</dc:format>
        <dc:type
           rdf:resource="http://purl.org/dc/dcmitype/StillImage" />
        <dc:title></dc:title>
      </cc:Work>
    </rdf:RDF>
  </metadata>
  <g
     inkscape:label="Layer 1"
     inkscape:groupmode="layer"
     id="layer1"
     transform="translate(0,-161.53331)">
    <path
       style="opacity:1;fill:#000000;fill-opacity:1;fill-rule:evenodd;stroke:none;stroke-width:28.44543839;stroke-linecap:round;stroke-linejoin:round;stroke-miterlimit:4;stroke-dasharray:none;stroke-dashoffset:0;stroke-opacity:1"
       d="M 189.42578 72.003906 C 188.35819 72.003906 187.3012 72.043416 186.25 72.103516 C 184.92422 72.179486 183.61512 72.309571 182.31836 72.478516 C 181.96086 72.525386 181.59927 72.559986 181.24414 72.613281 C 180.6165 72.707771 179.99691 72.825753 179.37695 72.941406 C 179.11947 72.989786 178.85766 73.028296 178.60156 73.080078 C 178.59856 73.080607 178.59675 73.081431 178.59375 73.082031 C 177.72029 73.25846 176.85486 73.456127 175.99805 73.673828 C 175.14537 73.890622 174.30193 74.126185 173.4668 74.382812 C 173.4618 74.384012 173.45782 74.383321 173.45312 74.384766 C 172.14501 74.787361 170.86521 75.25269 169.60352 75.75 C 169.24692 75.890598 168.88587 76.022142 168.5332 76.169922 C 167.73282 76.505582 166.94153 76.85976 166.16211 77.232422 C 165.38942 77.602022 164.62798 77.989517 163.87695 78.394531 C 163.87095 78.398331 163.86382 78.40283 163.85742 78.40625 C 163.10709 78.811264 162.36827 79.234496 161.64062 79.673828 C 160.9068 80.116902 160.18432 80.577787 159.47461 81.054688 C 159.04204 81.345369 158.6225 81.653913 158.19922 81.957031 C 157.92376 82.154171 157.64059 82.340764 157.36914 82.542969 C 157.36614 82.546769 157.36336 82.548281 157.35938 82.550781 C 156.68301 83.05497 156.01981 83.576147 155.36914 84.111328 C 154.71094 84.652708 154.06639 85.209256 153.43555 85.78125 C 152.98895 86.186189 152.55743 86.607514 152.125 87.027344 C 151.94266 87.204263 151.75206 87.373207 151.57227 87.552734 C 150.97445 88.150051 150.391 88.763273 149.82227 89.388672 C 149.82027 89.392472 149.81841 89.394084 149.81641 89.396484 C 149.81041 89.404084 149.80286 89.408456 149.79688 89.416016 C 149.23277 90.037219 148.68283 90.672503 148.14844 91.320312 C 147.71912 91.840753 147.30603 92.375114 146.89648 92.912109 C 146.78673 93.055996 146.67078 93.19471 146.5625 93.339844 C 146.05394 94.021066 145.56202 94.715632 145.08594 95.421875 C 144.13064 96.839084 143.24189 98.3067 142.42383 99.818359 L 142.42188 99.820312 C 142.15368 100.31596 141.90516 100.82297 141.65234 101.32812 C 141.51565 101.60127 141.37041 101.86863 141.23828 102.14453 C 141.06552 102.50529 140.90904 102.87475 140.74414 103.24023 C 140.55276 103.66422 140.35441 104.08371 140.17383 104.51367 C 139.91486 105.13023 139.67582 105.75826 139.43945 106.38672 C 139.37195 106.56621 139.29612 106.74121 139.23047 106.92188 C 138.94418 107.70879 138.6779 108.50626 138.42773 109.31055 C 138.41773 109.34195 138.40628 109.3741 138.39648 109.4043 C 138.19773 110.04757 138.02081 110.6997 137.8457 111.35352 C 137.7915 111.55583 137.72767 111.75369 137.67578 111.95703 C 137.47071 112.76048 137.28782 113.57442 137.11914 114.39258 C 137.10894 114.44098 137.09574 114.48838 137.08594 114.53711 C 136.96 115.15657 136.85657 115.78471 136.75195 116.41211 C 136.70795 116.67611 136.65345 116.93585 136.61328 117.20117 C 136.50919 117.88829 136.42969 118.58341 136.35156 119.2793 C 136.32926 119.47806 136.29734 119.67349 136.27734 119.87305 C 136.23514 120.29068 136.21259 120.71422 136.17969 121.13477 C 136.14029 121.64164 136.09169 122.1453 136.06641 122.65625 C 136.06441 122.70875 136.0655 122.76192 136.0625 122.81445 C 136.0218 123.68034 135.99609 124.55085 135.99609 125.42773 L 135.99609 216.00391 L 247.99414 216.00391 L 247.99414 202.92383 C 235.28754 199.43623 226 187.84776 226 174.00391 L 226 134.00391 C 226 120.16005 235.28754 108.57158 247.99414 105.08398 L 247.99414 72.005859 L 189.42578 72.005859 L 189.42578 72.003906 z M 263.99805 72.005859 L 263.99805 105.08203 C 276.70863 108.56703 286 120.15723 286 134.00391 L 286 174.00391 C 286 187.85058 276.70863 199.44078 263.99805 202.92578 L 263.99805 216.00781 L 375.99609 216.00781 L 375.99609 204.86133 L 375.99609 192.00977 L 375.99609 125.43164 C 375.99609 125.02927 375.9755 124.63256 375.9668 124.23242 C 375.9552 123.69248 375.95103 123.15083 375.92383 122.61523 C 375.92357 122.61123 375.9241 122.60341 375.92383 122.59961 C 375.90633 122.25605 375.8695 121.91784 375.8457 121.57617 C 375.8068 121.01862 375.7743 120.4587 375.71875 119.90625 C 375.68245 119.54481 375.62925 119.18913 375.58594 118.83008 C 375.51984 118.28205 375.45927 117.73197 375.37695 117.18945 C 375.37675 117.18845 375.37715 117.18655 375.37695 117.18555 C 375.24485 116.31535 375.09276 115.45293 374.91992 114.59766 C 374.91938 114.59366 374.91897 114.59284 374.91797 114.58984 C 374.81426 114.07692 374.6903 113.57362 374.57227 113.06641 C 374.48757 112.70251 374.41426 112.3336 374.32227 111.97266 C 374.32027 111.96466 374.31841 111.95877 374.31641 111.95117 C 374.23461 111.63093 374.13629 111.31786 374.04883 111 C 373.90384 110.47317 373.76392 109.94378 373.60352 109.42383 C 373.60252 109.41583 373.60061 109.412 373.59961 109.4082 C 373.54081 109.21794 373.47097 109.0331 373.41016 108.84375 C 373.2032 108.1993 372.99396 107.55694 372.76367 106.92383 C 372.46571 106.10462 372.14858 105.29347 371.8125 104.49414 C 371.47722 103.69674 371.12217 102.91135 370.75 102.13477 C 370.74912 102.13077 370.74905 102.12895 370.74805 102.12695 C 370.70615 102.03965 370.65755 101.95607 370.61523 101.86914 C 370.28035 101.18025 369.93739 100.49569 369.57422 99.824219 C 369.16515 99.06786 368.73888 98.323072 368.29492 97.589844 C 367.85751 96.867425 367.40384 96.156017 366.93359 95.457031 C 366.92659 95.445691 366.91931 95.439074 366.91211 95.427734 C 366.44111 94.728711 365.954 94.041642 365.45117 93.367188 C 365.44417 93.355848 365.43689 93.347276 365.42969 93.335938 C 365.28146 93.137361 365.12162 92.948489 364.9707 92.751953 C 364.60181 92.272067 364.23437 91.790801 363.84961 91.324219 C 363.31417 90.674896 362.7645 90.038617 362.19922 89.416016 L 362.17773 89.394531 C 362.09533 89.303821 362.00686 89.218859 361.92383 89.128906 C 360.85923 87.973958 359.74893 86.860648 358.58594 85.804688 C 358.57894 85.797088 358.57165 85.792716 358.56445 85.785156 C 358.41404 85.64864 358.25549 85.52127 358.10352 85.386719 C 357.61814 84.956571 357.13203 84.527543 356.63086 84.115234 C 355.97958 83.579373 355.31572 83.057528 354.63867 82.552734 C 354.63167 82.548934 354.62439 82.540899 354.61719 82.537109 C 353.93915 82.032089 353.24772 81.543169 352.54492 81.070312 C 352.53792 81.062714 352.53179 81.058456 352.52539 81.054688 C 351.82131 80.581453 351.10678 80.125522 350.37891 79.685547 C 350.37291 79.681747 350.36703 79.679281 350.36133 79.675781 C 349.62754 79.232632 348.88187 78.8067 348.125 78.398438 C 347.37325 77.99297 346.6094 77.604391 345.83594 77.234375 C 345.83094 77.230575 345.82561 77.229062 345.82031 77.226562 C 345.66239 77.150974 345.49866 77.085797 345.33984 77.011719 C 343.93595 76.357785 342.50422 75.753465 341.03516 75.220703 C 341.03116 75.219503 341.02714 75.218197 341.02344 75.216797 C 339.76806 74.761855 338.48235 74.366363 337.18359 74.003906 C 336.78963 73.8943 336.39966 73.775119 336.00195 73.673828 C 335.26268 73.485721 334.5154 73.321291 333.76367 73.164062 C 333.64428 73.139124 333.5279 73.104711 333.4082 73.082031 C 333.4052 73.081389 333.40144 73.080778 333.39844 73.080078 C 332.52753 72.904368 331.65008 72.748652 330.76367 72.615234 C 330.76167 72.61497 330.75981 72.615537 330.75781 72.615234 C 329.87073 72.481817 328.97575 72.369628 328.07422 72.279297 C 328.07322 72.279183 328.07131 72.27941 328.07031 72.279297 C 327.16811 72.188967 326.25934 72.119951 325.34375 72.074219 L 325.3418 72.074219 C 324.42555 72.028489 323.50282 72.005859 322.57422 72.005859 L 263.99805 72.005859 z "
       transform="matrix(0.26458333,0,0,0.26458333,0,161.53331)"
       id="path1033" />
    <path
       style="opacity:1;fill:#000000;fill-opacity:1;fill-rule:evenodd;stroke:none;stroke-width:28.44543839;stroke-linecap:round;stroke-linejoin:round;stroke-miterlimit:4;stroke-dasharray:none;stroke-dashoffset:0;stroke-opacity:1"
       d="m 135.99609,232 v 88 l -0.008,-0.008 a 8.0007996,8.0007996 0 0 1 0,0.39258 l 0.008,-0.34766 c 0.0213,66.36102 53.66242,119.97423 120.02344,119.96289 66.36174,-0.0101 119.97656,-53.63826 119.97656,-120 v -0.082 V 232 H 263.99805 Z"
       transform="matrix(0.26458333,0,0,0.26458333,0,161.53331)"
       id="rect841-8" />
    <rect
       style="opacity:1;fill:#000000;fill-opacity:1;fill-rule:evenodd;stroke:none;stroke-width:4.42732573;stroke-linecap:round;stroke-linejoin:round;stroke-miterlimit:4;stroke-dasharray:none;stroke-dashoffset:0;stroke-opacity:1"
       id="rect1027-1"
       width="10.583333"
       height="19.84375"
       x="62.441666"
       y="192.35831"
       ry="5.2916665" />
  </g>
</svg>
